<?xml version="1.0" encoding="iso-8859-1"?>
<!-- Generator: Adobe Illustrator 19.0.0, SVG Export Plug-In . SVG Version: 6.00 Build 0)  -->
<svg version="1.1" id="Capa_1" xmlns="http://www.w3.org/2000/svg" xmlns:xlink="http://www.w3.org/1999/xlink" x="0px" y="0px"
	 viewBox="0 0 472 472" style="enable-background:new 0 0 472 472;" xml:space="preserve">
<g>
	<rect x="84" y="120" style="fill:#403E3E;" width="16" height="40"/>
	<rect x="372" y="120" style="fill:#403E3E;" width="16" height="40"/>
	<rect x="84" y="272" style="fill:#403E3E;" width="16" height="40"/>
	<rect x="372" y="272" style="fill:#403E3E;" width="16" height="40"/>
	<rect x="84" y="424" style="fill:#403E3E;" width="16" height="48"/>
	<rect x="372" y="424" style="fill:#403E3E;" width="16" height="48"/>
	<rect x="132" y="456" style="fill:#403E3E;" width="208" height="16"/>
</g>
<path style="fill:#43D3E8;" d="M420,128H52V0h368V128z M68,112h336V16H68V112z"/>
<path style="fill:#F96232;" d="M364,88c-13.232,0-24-10.768-24-24s10.768-24,24-24s24,10.768,24,24S377.232,88,364,88z M364,56
	c-4.416,0-8,3.592-8,8s3.584,8,8,8s8-3.592,8-8S368.416,56,364,56z"/>
<g>
	<rect x="308" y="40" style="fill:#403E3E;" width="16" height="16"/>
	<rect x="276" y="40" style="fill:#403E3E;" width="16" height="16"/>
	<rect x="244" y="40" style="fill:#403E3E;" width="16" height="16"/>
	<rect x="308" y="72" style="fill:#403E3E;" width="16" height="16"/>
	<rect x="276" y="72" style="fill:#403E3E;" width="16" height="16"/>
	<rect x="244" y="72" style="fill:#403E3E;" width="16" height="16"/>
	<rect x="116" y="40" style="fill:#403E3E;" width="16" height="48"/>
	<rect x="84" y="40" style="fill:#403E3E;" width="16" height="48"/>
	<rect x="148" y="40" style="fill:#403E3E;" width="16" height="48"/>
</g>
<path style="fill:#43D3E8;" d="M420,280H52V152h368V280z M68,264h336v-96H68V264z"/>
<path style="fill:#F96232;" d="M364,240c-13.232,0-24-10.768-24-24s10.768-24,24-24s24,10.768,24,24S377.232,240,364,240z M364,208
	c-4.416,0-8,3.592-8,8s3.584,8,8,8s8-3.592,8-8S368.416,208,364,208z"/>
<g>
	<rect x="308" y="192" style="fill:#403E3E;" width="16" height="16"/>
	<rect x="276" y="192" style="fill:#403E3E;" width="16" height="16"/>
	<rect x="244" y="192" style="fill:#403E3E;" width="16" height="16"/>
	<rect x="308" y="224" style="fill:#403E3E;" width="16" height="16"/>
	<rect x="276" y="224" style="fill:#403E3E;" width="16" height="16"/>
	<rect x="244" y="224" style="fill:#403E3E;" width="16" height="16"/>
	<rect x="116" y="192" style="fill:#403E3E;" width="16" height="48"/>
	<rect x="84" y="192" style="fill:#403E3E;" width="16" height="48"/>
	<rect x="148" y="192" style="fill:#403E3E;" width="16" height="48"/>
</g>
<path style="fill:#43D3E8;" d="M420,432H52V304h368V432z M68,416h336v-96H68V416z"/>
<path style="fill:#F96232;" d="M364,392c-13.232,0-24-10.768-24-24s10.768-24,24-24s24,10.768,24,24S377.232,392,364,392z M364,360
	c-4.416,0-8,3.584-8,8s3.584,8,8,8s8-3.584,8-8S368.416,360,364,360z"/>
<g>
	<rect x="308" y="344" style="fill:#403E3E;" width="16" height="16"/>
	<rect x="276" y="344" style="fill:#403E3E;" width="16" height="16"/>
	<rect x="244" y="344" style="fill:#403E3E;" width="16" height="16"/>
	<rect x="308" y="376" style="fill:#403E3E;" width="16" height="16"/>
	<rect x="276" y="376" style="fill:#403E3E;" width="16" height="16"/>
	<rect x="244" y="376" style="fill:#403E3E;" width="16" height="16"/>
	<rect x="116" y="344" style="fill:#403E3E;" width="16" height="48"/>
	<rect x="84" y="344" style="fill:#403E3E;" width="16" height="48"/>
	<rect x="148" y="344" style="fill:#403E3E;" width="16" height="48"/>
</g>
<g>
</g>
<g>
</g>
<g>
</g>
<g>
</g>
<g>
</g>
<g>
</g>
<g>
</g>
<g>
</g>
<g>
</g>
<g>
</g>
<g>
</g>
<g>
</g>
<g>
</g>
<g>
</g>
<g>
</g>
</svg>
