<?xml version="1.0" encoding="iso-8859-1"?>
<!-- Generator: Adobe Illustrator 19.0.0, SVG Export Plug-In . SVG Version: 6.00 Build 0)  -->
<svg version="1.1" id="Layer_1" xmlns="http://www.w3.org/2000/svg" xmlns:xlink="http://www.w3.org/1999/xlink" x="0px" y="0px"
	 viewBox="0 0 491.52 491.52" style="enable-background:new 0 0 491.52 491.52;" xml:space="preserve">
<path style="fill:#64798A;" d="M398.905,39.239H92.615c-10.079,0-18.25,8.17-18.25,18.249v415.783
	c0,10.079,8.171,18.249,18.25,18.249h306.289c10.079,0,18.25-8.17,18.25-18.249V57.488
	C417.154,47.409,408.983,39.239,398.905,39.239z"/>
<rect x="94.444" y="63.222" style="fill:#EBF0F3;" width="302.643" height="409.047"/>
<rect x="94.444" y="54.067" style="fill:#FFFFFF;" width="302.643" height="409.047"/>
<rect x="151.219" y="39.24" style="fill:#3A556A;" width="189.076" height="14.828"/>
<rect x="151.219" y="54.067" style="fill:#E1E6E9;" width="189.076" height="32.584"/>
<path style="fill:#DC8744;" d="M319.317,27.124h-45.694C273.178,12.079,260.912,0,245.761,0c-15.155,0-27.419,12.079-27.864,27.124
	h-45.694c-4.185,0-7.575,3.391-7.575,7.574v38.547h162.264V34.699C326.892,30.515,323.501,27.124,319.317,27.124z"/>
<rect x="132.342" y="208.338" style="fill:#E56353;" width="44.989" height="49.787"/>
<rect x="192.957" y="152.131" style="fill:#27A2DB;" width="44.989" height="105.989"/>
<rect x="253.594" y="95.314" style="fill:#44C4A1;" width="44.989" height="162.806"/>
<rect x="314.163" y="171.54" style="fill:#FCD462;" width="44.989" height="86.579"/>
<rect x="132.342" y="242.483" style="fill:#D15241;" width="44.989" height="15.626"/>
<rect x="192.957" y="242.483" style="fill:#2D93BA;" width="44.989" height="15.626"/>
<rect x="253.594" y="242.483" style="fill:#3EA69B;" width="44.989" height="15.626"/>
<rect x="314.214" y="242.483" style="fill:#F6C358;" width="44.989" height="15.626"/>
<g>
	<rect x="114.345" y="288.461" style="fill:#D5D6DB;" width="262.81" height="8.934"/>
	<rect x="114.345" y="324.813" style="fill:#D5D6DB;" width="262.81" height="8.934"/>
	<rect x="114.345" y="361.114" style="fill:#D5D6DB;" width="262.81" height="8.934"/>
	<rect x="114.345" y="397.466" style="fill:#D5D6DB;" width="262.81" height="8.934"/>
	<rect x="114.345" y="433.818" style="fill:#D5D6DB;" width="186.01" height="8.934"/>
</g>
<g>
</g>
<g>
</g>
<g>
</g>
<g>
</g>
<g>
</g>
<g>
</g>
<g>
</g>
<g>
</g>
<g>
</g>
<g>
</g>
<g>
</g>
<g>
</g>
<g>
</g>
<g>
</g>
<g>
</g>
</svg>
