<svg height="512pt" viewBox="0 0 512 512" width="512pt" xmlns="http://www.w3.org/2000/svg"><path d="m512 60v300l-30 30h-452l-30-30v-300zm0 0" fill="#5a5a5a"/><path d="m512 60v300l-30 30h-226v-330zm0 0" fill="#444"/><path d="m30 90h452v270h-452zm0 0" fill="#ffd400"/><path d="m256 90h226v270h-226zm0 0" fill="#fdbf00"/><path d="m181 405h150v92h-150zm0 0" fill="#5a5a5a"/><path d="m256 405h75v92h-75zm0 0" fill="#444"/><path d="m121 482h270v30h-270zm0 0" fill="#6e6e6e"/><path d="m256 482h135v30h-135zm0 0" fill="#5a5a5a"/><path d="m391 120v240h-270v-360h150zm0 0" fill="#deecf1"/><path d="m391 120v240h-135v-360h15zm0 0" fill="#c6e2e7"/><g fill="#a8d3d8"><path d="m322.210938 0h-51.210938v120h120v-51.210938zm0 0"/><path d="m181 150h150v30h-150zm0 0"/><path d="m181 210h150v30h-150zm0 0"/><path d="m181 270h150v30h-150zm0 0"/></g><path d="m256 150h75v30h-75zm0 0" fill="#8ebac5"/><path d="m256 210h75v30h-75zm0 0" fill="#8ebac5"/><path d="m256 270h75v30h-75zm0 0" fill="#8ebac5"/><path d="m181 90h60v30h-60zm0 0" fill="#a8d3d8"/><path d="m0 360h512v60h-512zm0 0" fill="#6e6e6e"/><path d="m256 360h256v60h-256zm0 0" fill="#5a5a5a"/></svg>