<?xml version="1.0" encoding="iso-8859-1"?>
<!-- Generator: Adobe Illustrator 19.0.0, SVG Export Plug-In . SVG Version: 6.00 Build 0)  -->
<svg version="1.1" id="Capa_1" xmlns="http://www.w3.org/2000/svg" xmlns:xlink="http://www.w3.org/1999/xlink" x="0px" y="0px"
	 viewBox="0 0 512 512" style="enable-background:new 0 0 512 512;" xml:space="preserve">
<rect x="217.076" y="240.317" transform="matrix(0.7071 0.7071 -0.7071 0.7071 265.883 -82.1757)" style="fill:#D15052;" width="30.12" height="79.089"/>
<circle style="fill:#F25D5F;" cx="354.92" cy="157.09" r="149.59"/>
<path style="fill:#ADDDF7;" d="M354.915,276.67c31.942,0,61.973-12.439,84.56-35.026c22.587-22.586,35.025-52.617,35.025-84.559
	c0-31.943-12.438-61.973-35.025-84.56C416.888,49.939,386.857,37.5,354.915,37.5s-61.973,12.439-84.56,35.025
	c-22.587,22.587-35.025,52.617-35.025,84.56c0,31.942,12.438,61.973,35.025,84.559C292.942,264.231,322.973,276.67,354.915,276.67z"
	/>
<path style="fill:#4E5498;" d="M11.015,475.363l25.622,25.622c4.686,4.686,12.284,4.686,16.971,0l181.401-181.401l-42.593-42.593
	L11.015,458.392C6.328,463.079,6.328,470.677,11.015,475.363z"/>
<path style="fill:#40457D;" d="M213.662,298.237L32.261,479.639c-4.687,4.686-12.284,4.686-16.971,0l21.347,21.347
	c4.686,4.686,12.284,4.686,16.971,0l181.401-181.401L213.662,298.237z"/>
<g>
	
		<rect x="114.162" y="352.665" transform="matrix(0.7071 0.7071 -0.7071 0.7071 302.2798 5.6817)" style="fill:#F2DC50;" width="60.239" height="30.12"/>
	<circle style="fill:#F2DC50;" cx="104.88" cy="184.03" r="20"/>
	<circle style="fill:#F2DC50;" cx="205.53" cy="58.59" r="20"/>
	<circle style="fill:#F2DC50;" cx="323.16" cy="222.73" r="20"/>
	<circle style="fill:#F2DC50;" cx="372.44" cy="144.03" r="20"/>
</g>
<path d="M465.991,46.009C436.321,16.34,396.874,0,354.915,0s-81.406,16.34-111.076,46.009c-3.835,3.835-7.443,7.837-10.826,11.983
	c-0.321-14.887-12.522-26.902-27.485-26.902c-15.163,0-27.5,12.337-27.5,27.5c0,6.114,2.008,11.766,5.396,16.338l-66.192,84.544
	c-3.717-1.877-7.911-2.941-12.351-2.941c-13.385,0-24.562,9.615-27,22.3H35.6c-4.143,0-7.5,3.357-7.5,7.5s3.357,7.5,7.5,7.5h43.593
	c3.957,10.337,13.977,17.7,25.688,17.7c15.163,0,27.5-12.337,27.5-27.5c0-5.267-1.491-10.191-4.07-14.378l66.978-85.548
	c3.167,1.276,6.621,1.985,10.24,1.985c3.299,0,6.464-0.585,9.397-1.655l0.37,0.52c-11.411,22.026-17.465,46.611-17.465,72.13
	c0,34.341,10.951,66.995,31.191,93.988l-25.954,25.962l-5.347-5.347c-2.93-2.928-7.678-2.928-10.607,0l0,0L71.066,387.733l0,0
	c-2.929,2.93-2.929,7.678,0,10.607c1.465,1.464,3.385,2.196,5.304,2.196s3.839-0.732,5.304-2.196l30.663-30.663l31.986,31.986
	l-96.019,96.019c-0.85,0.85-1.979,1.317-3.182,1.317c-1.201,0-2.331-0.468-3.182-1.318L16.318,470.06
	c-0.85-0.85-1.318-1.98-1.318-3.182s0.468-2.332,1.318-3.182l42.022-42.022c2.929-2.93,2.929-7.678,0-10.607
	c-2.93-2.928-7.678-2.928-10.607,0L5.712,453.089C2.028,456.771,0,461.669,0,466.878c0,5.208,2.028,10.105,5.712,13.789
	l25.622,25.621c3.683,3.684,8.579,5.712,13.788,5.712c5.21,0,10.106-2.028,13.789-5.711l149.064-149.063
	c2.929-2.93,2.929-7.678,0-10.607c-2.929-2.927-7.677-2.929-10.607,0l-21.142,21.142l-31.987-31.986l48.176-48.176l31.986,31.986
	l-3.909,3.91c-2.929,2.929-2.929,7.678,0.001,10.606c2.928,2.928,7.677,2.929,10.606-0.001l9.212-9.213
	c2.929-2.929,2.929-7.677,0-10.606l-5.339-5.339l25.955-25.962c26.992,20.239,59.646,31.19,93.987,31.19
	c41.959,0,81.406-16.34,111.076-46.009c29.67-29.67,46.01-69.117,46.01-111.076S495.66,75.679,465.991,46.009z M165.62,378.367
	l-10.69,10.69l-31.986-31.986l10.689-10.689L165.62,378.367z M104.881,196.53c-6.893,0-12.5-5.607-12.5-12.5s5.607-12.5,12.5-12.5
	s12.5,5.607,12.5,12.5S111.773,196.53,104.881,196.53z M193.028,58.59c0-6.893,5.607-12.5,12.5-12.5s12.5,5.607,12.5,12.5
	s-5.607,12.5-12.5,12.5S193.028,65.482,193.028,58.59z M224.367,298.335l-10.694-10.694l24.947-24.954
	c1.691,1.859,3.429,3.685,5.219,5.474c1.79,1.79,3.617,3.528,5.476,5.22L224.367,298.335z M455.384,257.554
	c-26.836,26.837-62.517,41.616-100.469,41.616s-73.633-14.779-100.469-41.616c-26.837-26.836-41.616-62.517-41.616-100.469
	c0-24.407,6.122-47.871,17.623-68.651c0.164-0.258,0.31-0.525,0.44-0.799c6.31-11.228,14.196-21.663,23.553-31.019
	C281.282,29.779,316.963,15,354.915,15s73.633,14.779,100.469,41.616C482.221,83.452,497,119.133,497,157.085
	S482.221,230.718,455.384,257.554z"/>
<path d="M444.778,67.223C420.774,43.22,388.86,30,354.915,30s-65.858,13.219-89.863,37.222
	c-12.302,12.302-21.763,26.686-28.071,42.352c-0.018,0.046-0.038,0.091-0.055,0.137c-5.964,14.863-9.095,30.876-9.095,47.374
	c0,33.946,13.219,65.859,37.222,89.863c24.004,24.003,55.918,37.223,89.863,37.223s65.859-13.22,89.863-37.223
	c5.654-5.655,10.786-11.839,15.255-18.38c2.336-3.421,1.457-8.087-1.963-10.424c-3.42-2.336-8.088-1.457-10.424,1.963
	c-3.944,5.774-8.478,11.236-13.476,16.233c-21.17,21.171-49.317,32.83-79.256,32.83s-58.086-11.659-79.256-32.83
	c-21.17-21.17-32.829-49.316-32.829-79.256c0-9.701,1.231-19.21,3.606-28.358l54.954,77.234c-3.588,4.646-5.729,10.462-5.729,16.772
	c0,15.163,12.337,27.5,27.5,27.5s27.5-12.337,27.5-27.5c0-6.846-2.52-13.11-6.674-17.928l20.142-34.562
	c2.625,0.835,5.418,1.288,8.316,1.288c13.35,0,24.505-9.565,26.982-22.2h48.903c4.143,0,7.5-3.357,7.5-7.5s-3.357-7.5-7.5-7.5
	h-50.158c-3.931-10.39-13.979-17.8-25.728-17.8c-15.163,0-27.5,12.337-27.5,27.5c0,6.838,2.515,13.096,6.66,17.913l-20.147,34.571
	c-2.619-0.831-5.406-1.282-8.296-1.282c-3.423,0-6.7,0.634-9.726,1.782l-60.928-85.63c5.516-12.347,13.302-23.707,23.151-33.556
	C296.829,56.659,324.977,45,354.915,45s58.086,11.659,79.257,32.83C455.341,98.999,467,127.146,467,157.086
	c0,11.922-1.844,23.635-5.48,34.814c-1.281,3.939,0.873,8.171,4.812,9.452c3.938,1.28,8.171-0.872,9.452-4.812
	c4.125-12.681,6.217-25.955,6.217-39.455C482,123.139,468.781,91.225,444.778,67.223z M372.444,131.53c6.893,0,12.5,5.607,12.5,12.5
	s-5.607,12.5-12.5,12.5s-12.5-5.607-12.5-12.5S365.552,131.53,372.444,131.53z M335.661,222.732c0,6.893-5.607,12.5-12.5,12.5
	s-12.5-5.607-12.5-12.5s5.607-12.5,12.5-12.5S335.661,215.84,335.661,222.732z"/>
<g>
</g>
<g>
</g>
<g>
</g>
<g>
</g>
<g>
</g>
<g>
</g>
<g>
</g>
<g>
</g>
<g>
</g>
<g>
</g>
<g>
</g>
<g>
</g>
<g>
</g>
<g>
</g>
<g>
</g>
</svg>
