<?xml version="1.0" encoding="iso-8859-1"?>
<!-- Generator: Adobe Illustrator 19.0.0, SVG Export Plug-In . SVG Version: 6.00 Build 0)  -->
<svg version="1.1" id="Capa_1" xmlns="http://www.w3.org/2000/svg" xmlns:xlink="http://www.w3.org/1999/xlink" x="0px" y="0px"
	 viewBox="0 0 512.003 512.003" style="enable-background:new 0 0 512.003 512.003;" xml:space="preserve">
<circle style="fill:#D8FB93;" cx="121.978" cy="256.042" r="111.996"/>
<path style="fill:#2E9DE3;" d="M204.826,324.974c0-21.872-14.734-40.999-35.883-46.58l-24.621-6.498H99.639l-24.622,6.498
	c-21.148,5.581-35.883,24.708-35.883,46.58v6.429c20.485,22.506,50.015,36.633,82.846,36.633c32.83,0,62.361-14.126,82.846-36.633
	V324.974z"/>
<path style="fill:#FFCDAC;" d="M121.98,278.424L121.98,278.424c-22.946,0-41.546-18.601-41.546-41.546v-10.839
	c0-22.946,18.601-41.546,41.546-41.546l0,0c22.946,0,41.546,18.601,41.546,41.546v10.839
	C163.527,259.823,144.926,278.424,121.98,278.424z"/>
<circle style="fill:#ADE5FF;" cx="409.977" cy="102.048" r="91.996"/>
<path style="fill:#EF3C3C;" d="M474.522,160.494c0-17.039-11.48-31.941-27.955-36.289l-19.182-5.062h-34.812l-19.182,5.062
	c-16.475,4.348-27.955,19.249-27.955,36.289v5.009c15.959,17.533,38.965,28.539,64.542,28.539c25.577,0,48.583-11.006,64.542-28.539
	v-5.009H474.522z"/>
<path style="fill:#FFCDAC;" d="M409.979,124.228L409.979,124.228c-17.876,0-32.368-14.491-32.368-32.368v-8.444
	c0-17.876,14.491-32.368,32.368-32.368l0,0c17.876,0,32.368,14.491,32.368,32.368v8.444
	C442.347,109.736,427.855,124.228,409.979,124.228z"/>
<circle style="fill:#FFC66C;" cx="409.977" cy="410.036" r="91.996"/>
<path style="fill:#7D9BFF;" d="M474.522,468.481c0-17.039-11.48-31.941-27.955-36.289l-19.182-5.062h-34.812l-19.182,5.062
	c-16.475,4.348-27.955,19.249-27.955,36.289v5.009c15.959,17.533,38.965,28.539,64.542,28.539c25.577,0,48.583-11.006,64.542-28.539
	v-5.009H474.522z"/>
<path style="fill:#FFCDAC;" d="M409.979,432.215L409.979,432.215c-17.876,0-32.368-14.491-32.368-32.368v-8.444
	c0-17.876,14.491-32.368,32.368-32.368l0,0c17.876,0,32.368,14.491,32.368,32.368v8.444
	C442.347,417.723,427.855,432.215,409.979,432.215z"/>
<path d="M35.727,183.923c1.953,1.952,4.512,2.929,7.071,2.929c2.559,0,5.118-0.977,7.071-2.929c3.905-3.905,3.905-10.237,0-14.142
	l-0.072-0.072c-3.906-3.904-10.236-3.904-14.142,0c-3.905,3.905-3.905,10.237,0,14.142L35.727,183.923z"/>
<path d="M337.865,44.07c1.945,1.945,4.485,2.914,7.027,2.914c2.562,0,5.125-0.984,7.085-2.944
	c3.905-3.905,3.876-10.267-0.029-14.171c-3.906-3.904-10.236-3.904-14.142,0c-3.905,3.905-3.905,10.237,0,14.142L337.865,44.07z"/>
<path d="M504.723,372.2c-2.045-5.13-7.86-7.632-12.991-5.584c-5.13,2.046-7.63,7.862-5.584,12.991
	c9.488,23.789,7.227,50.137-5.245,71.594c-5.11-14.293-16.98-25.631-32.282-29.669l-2.681-0.708
	c3.785-6.298,5.967-13.663,5.967-21.531v-8.33c0-23.12-18.809-41.929-41.929-41.929c-23.12,0-41.929,18.809-41.929,41.929v8.33
	c0,7.868,2.182,15.232,5.967,21.53l-2.682,0.708c-15.294,4.037-27.162,15.367-32.275,29.652
	c-18.192-31.369-13.887-72.306,12.939-99.131c23.066-23.067,57.598-30.276,87.977-18.357c5.142,2.018,10.943-0.517,12.96-5.658
	c2.017-5.141-0.517-10.944-5.658-12.96c-37.776-14.818-80.73-5.857-109.422,22.834c-4.776,4.776-9.019,9.944-12.702,15.428
	l-91.239-48.786c13.333-30.867,13.333-66.16,0-97.027l91.274-48.805c3.667,5.483,7.886,10.667,12.667,15.446
	c19.265,19.265,44.878,29.874,72.122,29.874c27.244,0,52.857-10.609,72.122-29.874c39.768-39.768,39.768-104.476,0-144.244
	C453.23,1.054,410.068-7.827,372.146,7.301c-5.13,2.046-7.631,7.862-5.584,12.991c2.045,5.13,7.863,7.636,12.991,5.584
	c30.495-12.162,65.195-5.021,88.406,18.188c26.826,26.826,31.131,67.762,12.939,99.131c-5.114-14.284-16.98-25.616-32.276-29.652
	l-2.681-0.708c3.785-6.298,5.967-13.663,5.967-21.531v-8.33c0-23.12-18.809-41.929-41.929-41.929
	c-23.12,0-41.929,18.809-41.929,41.929v8.33c0,7.868,2.182,15.232,5.967,21.53l-2.682,0.708
	c-15.296,4.037-27.165,15.369-32.277,29.657c-12.376-21.32-14.696-47.496-5.417-71.153c2.017-5.141-0.517-10.944-5.658-12.96
	c-5.141-2.019-10.943,0.517-12.961,5.658c-9.832,25.064-9.186,52.399,0.734,76.341l-91.267,48.801
	c-4.601-7.126-10.011-13.877-16.245-20.113c-18.93-18.93-42.916-30.881-69.365-34.562c-25.578-3.563-52.122,1.193-74.741,13.381
	c-4.862,2.62-6.68,8.686-4.061,13.546c2.621,4.862,8.688,6.68,13.546,4.061c39.32-21.187,88.864-13.902,120.478,17.715
	c32.795,32.795,38.54,82.547,17.248,121.288c-6.366-17.576-21.005-31.506-39.854-36.481l-7.539-1.989
	c6.016-8.433,9.57-18.736,9.57-29.86v-10.839c0-28.423-23.123-51.546-51.546-51.546s-51.547,23.123-51.547,51.546v10.839
	c0,11.125,3.554,21.427,9.57,29.86l-7.539,1.99c-18.82,4.967-33.443,18.861-39.824,36.399
	c-16.225-29.774-17.048-66.727-0.498-97.442c2.62-4.862,0.803-10.928-4.059-13.546c-4.865-2.621-10.927-0.803-13.546,4.059
	c-12.19,22.621-16.942,49.165-13.384,74.742c3.681,26.449,15.632,50.436,34.562,69.366c23.783,23.783,55.024,35.675,86.265,35.675
	s62.481-11.892,86.265-35.675c6.235-6.235,11.645-12.986,16.244-20.112l91.213,48.772c-5.065,12.222-7.72,25.442-7.72,39.071
	c0,27.244,10.609,52.857,29.874,72.122c19.888,19.886,46.006,29.827,72.124,29.827c26.119,0,52.239-9.942,72.123-29.826
	C510.97,453.287,519.85,410.127,504.723,372.2z M388.05,82.977c0-12.093,9.838-21.93,21.93-21.93c12.093,0,21.93,9.838,21.93,21.93
	v8.33c0,12.092-9.838,21.929-21.93,21.929c-12.092,0-21.93-9.838-21.93-21.929V82.977z M356.31,159.01
	c0-12.257,8.277-23,20.128-26.128l15.03-3.967c5.586,2.761,11.869,4.32,18.51,4.32c6.642,0,12.924-1.559,18.509-4.319l15.03,3.967
	c11.852,3.127,20.128,13.871,20.128,26.128v4.942c0,0.02,0.003,0.039,0.003,0.058c-14.902,12.947-33.737,20.031-53.671,20.031
	c-20.091,0-39.068-7.196-54.026-20.338c0.226-0.834,0.357-1.707,0.357-2.613L356.31,159.01L356.31,159.01z M90.434,226.038
	c0-17.395,14.151-31.547,31.548-31.547c17.395,0,31.547,14.151,31.547,31.547v10.839c0,17.395-14.151,31.548-31.547,31.548
	s-31.548-14.151-31.548-31.548C90.434,236.876,90.434,226.038,90.434,226.038z M49.858,328.161c-0.248-0.248-0.48-0.506-0.725-0.755
	v-2.431c0-17.314,11.693-32.494,28.435-36.912l20.671-5.456c7.111,3.707,15.182,5.816,23.741,5.816s16.629-2.109,23.74-5.816
	l20.671,5.455c16.741,4.418,28.435,19.597,28.435,36.912v2.444c-0.242,0.247-0.479,0.497-0.724,0.742
	C154.335,367.929,89.627,367.929,49.858,328.161z M388.05,390.965c0-12.093,9.838-21.93,21.93-21.93
	c12.093,0,21.93,9.838,21.93,21.93v8.33c0,12.093-9.838,21.93-21.93,21.93c-12.092,0-21.93-9.838-21.93-21.93V390.965z
	 M355.954,471.691c0.225-0.834,0.356-1.707,0.356-2.612v-2.08c0-12.257,8.277-23.001,20.128-26.129l15.029-3.967
	c5.587,2.761,11.87,4.32,18.511,4.32c6.642,0,12.924-1.559,18.511-4.32l15.028,3.967c11.852,3.127,20.128,13.871,20.128,26.129
	v4.941c0,0.018,0.003,0.036,0.003,0.054C432.826,498.731,386.661,498.631,355.954,471.691z"/>
<path d="M468.015,337.859l-0.06,0.06c-3.905,3.905-3.875,10.207,0.03,14.111c1.945,1.945,4.499,2.914,7.057,2.914
	c2.576,0,5.155-0.983,7.115-2.943c3.905-3.905,3.905-10.237,0-14.142C478.251,333.956,471.922,333.956,468.015,337.859z"/>
<g>
</g>
<g>
</g>
<g>
</g>
<g>
</g>
<g>
</g>
<g>
</g>
<g>
</g>
<g>
</g>
<g>
</g>
<g>
</g>
<g>
</g>
<g>
</g>
<g>
</g>
<g>
</g>
<g>
</g>
</svg>
