<?xml version="1.0" encoding="iso-8859-1"?>
<!-- Generator: Adobe Illustrator 19.0.0, SVG Export Plug-In . SVG Version: 6.00 Build 0)  -->
<svg version="1.1" id="Layer_1" xmlns="http://www.w3.org/2000/svg" xmlns:xlink="http://www.w3.org/1999/xlink" x="0px" y="0px"
	 viewBox="0 0 512 512" style="enable-background:new 0 0 512 512;" xml:space="preserve">
<path style="fill:#43D3E8;" d="M430.26,169.595v318.029c0,6.239,2.381,12.472,7.142,17.234c4.754,4.759,10.995,7.14,17.231,7.14
	s12.477-2.381,17.231-7.14c4.762-4.762,7.142-10.998,7.142-17.234V169.595H430.26z"/>
<rect x="430.26" y="451.072" style="fill:#242D3C;" width="48.742" height="20.314"/>
<rect x="437.393" y="152.372" transform="matrix(-0.7071 -0.7071 0.7071 -0.7071 656.1679 611.0079)" style="fill:#43D3E8;" width="34.47" height="34.47"/>
<g>
	<rect x="444.468" y="119.864" style="fill:#242D3C;" width="20.311" height="35.515"/>
	<rect x="430.26" y="192.358" style="fill:#242D3C;" width="48.742" height="20.311"/>
	<path style="fill:#242D3C;" d="M391.668,512H32.992V38.349L71.346,0l28.196,28.196L127.74,0l28.193,28.196L184.132,0l28.196,28.196
		L240.526,0l28.193,28.196L296.918,0l28.196,28.196L353.312,0l38.356,38.346V512z M53.303,491.686h318.054V46.766l-18.048-18.043
		l-28.198,28.193l-28.193-28.193l-28.201,28.193l-28.191-28.193l-28.198,28.193l-28.196-28.193l-28.198,28.193L127.74,28.723
		L99.542,56.916L71.346,28.723L53.303,46.766V491.686z"/>
</g>
<path style="fill:#F96232;" d="M99.995,119.864V180.8h60.936v-60.936H99.995z M140.617,160.486h-20.311v-20.314h20.311V160.486z"/>
<g>
	<rect x="185.294" y="119.864" style="fill:#242D3C;" width="139.366" height="20.311"/>
	<rect x="185.294" y="160.486" style="fill:#242D3C;" width="69.683" height="20.311"/>
</g>
<path style="fill:#F96232;" d="M99.995,201.111v60.936h60.936v-60.936H99.995z M140.617,241.733h-20.311v-20.311h20.311V241.733z"/>
<g>
	<rect x="185.294" y="201.114" style="fill:#242D3C;" width="139.366" height="20.314"/>
	<rect x="185.294" y="241.741" style="fill:#242D3C;" width="69.683" height="20.311"/>
</g>
<path style="fill:#F96232;" d="M99.995,282.358v60.936h60.936v-60.936H99.995z M140.617,322.982h-20.311v-20.314h20.311V322.982z"/>
<g>
	<rect x="185.294" y="282.368" style="fill:#242D3C;" width="139.366" height="20.314"/>
	<rect x="185.294" y="322.995" style="fill:#242D3C;" width="69.683" height="20.311"/>
</g>
<path style="fill:#F96232;" d="M99.995,363.604v60.936h60.936v-60.936H99.995z M140.617,404.227h-20.311v-20.311h20.311V404.227z"/>
<g>
	<rect x="185.294" y="363.597" style="fill:#242D3C;" width="139.366" height="20.314"/>
	<rect x="185.294" y="404.224" style="fill:#242D3C;" width="69.683" height="20.314"/>
</g>
<g>
</g>
<g>
</g>
<g>
</g>
<g>
</g>
<g>
</g>
<g>
</g>
<g>
</g>
<g>
</g>
<g>
</g>
<g>
</g>
<g>
</g>
<g>
</g>
<g>
</g>
<g>
</g>
<g>
</g>
</svg>
